Coordinates
version=1
nRows=13
nColumns=40
inDegrees=yes

Units are S.I. units (second, meters, Newtons, ...)
Angles are in degrees.

endheader
time	pelvis_tilt	pelvis_list	pelvis_rotation	pelvis_tx	pelvis_ty	pelvis_tz	hip_flexion_r	hip_adduction_r	hip_rotation_r	knee_angle_r	knee_angle_r_beta	ankle_angle_r	subtalar_angle_r	mtp_angle_r	hip_flexion_l	hip_adduction_l	hip_rotation_l	knee_angle_l	knee_angle_l_beta	ankle_angle_l	subtalar_angle_l	mtp_angle_l	lumbar_extension	lumbar_bending	lumbar_rotation	arm_flex_r	arm_add_r	arm_rot_r	elbow_flex_r	pro_sup_r	wrist_flex_r	wrist_dev_r	arm_flex_l	arm_add_l	arm_rot_l	elbow_flex_l	pro_sup_l	wrist_flex_l	wrist_dev_l
     46.90000000	     -2.45929062	     -1.66631024	      1.51085608	      0.96008261	      0.93433365	      0.41085273	     28.95441756	     -6.44666354	     -2.28610030	     72.91330750	     72.91330750	     -6.11372375	    -15.68900107	     -1.09090242	     11.99463858	      0.02015062	     -7.35916577	     18.62055936	     18.62055936	     11.43075961	    -13.44920368	      0.61476562	     -7.36663661	      4.98125206	      3.27934793	      1.90462518	    -12.20226920	    -15.96039783	     19.33977586	     47.16837607	      0.00000000	      0.00000000	     17.84071741	    -10.89932024	     -4.33646382	     43.59989262	     45.96160822	      0.00000000	      0.00000000
     46.91200000	     -2.41524748	     -1.74403109	      1.54429989	      0.95947758	      0.93512879	      0.41046560	     30.16815831	     -6.26069493	     -2.52312199	     72.26821317	     72.26821317	     -5.55742710	    -16.72700335	     -0.93699848	     11.11722556	     -0.02316642	     -7.42358457	     17.99045575	     17.99045575	     11.64626349	    -12.99305107	      0.62598778	     -7.54034296	      5.14940082	      3.08284827	      0.24975596	    -12.02577973	    -15.95867353	     18.60433756	     47.19183326	      0.00000000	      0.00000000	     19.07154621	    -11.16085129	     -4.51671833	     44.81867545	     46.00638779	      0.00000000	      0.00000000
     46.92400000	     -2.39690900	     -1.79896838	      1.58637371	      0.95882301	      0.93560553	      0.40996916	     31.32147035	     -6.21797033	     -2.84021051	     71.50095779	     71.50095779	     -4.81157431	    -17.15880884	     -0.93239039	     10.46961302	     -0.05015523	     -7.45410430	     17.73075478	     17.73075478	     11.91100690	    -12.82030615	      0.58073328	     -7.65569932	      5.29093947	      2.40392976	     -1.11073355	    -11.92824920	    -15.98559465	     18.11208591	     47.20433485	      0.00000000	      0.00000000	     20.23939403	    -11.74836126	     -4.68748202	     45.50663008	     46.04228035	      0.00000000	      0.00000000
     46.93600000	     -2.24588891	     -1.89500715	      1.54714823	      0.95835276	      0.93643244	      0.40975501	     32.28695661	     -5.95476685	     -3.06031978	     70.58193713	     70.58193713	     -3.68508078	    -17.71995807	      1.55255712	      9.35563252	     -0.13872541	     -7.67971476	     16.88255081	     16.88255081	     12.15636952	    -12.05102313	      0.51035221	     -8.13244132	      5.43493769	      2.81657817	     -3.25855763	    -11.77508700	    -15.92371640	     17.85680540	     47.23229257	      0.00000000	      0.00000000	     20.50686079	    -11.92473716	     -5.02286493	     50.29150294	     46.14718802	      0.00000000	      0.00000000
     46.94800000	     -2.15033673	     -1.94811821	      1.55884727	      0.95780123	      0.93706601	      0.40941313	     33.10214603	     -5.85372852	     -3.38097204	     69.26664386	     69.26664386	     -2.98420423	    -18.04883306	      2.18267448	      8.40444815	     -0.14331669	     -7.70568084	     16.18615122	     16.18615122	     12.36786782	    -11.63061679	      0.57999853	     -8.40175974	      5.54643630	      2.75367897	     -4.81905188	    -11.63312078	    -15.85537340	     17.26917352	     47.24717661	      0.00000000	      0.00000000	     21.65484893	    -12.14952389	     -5.23545710	     51.64780110	     46.19873385	      0.00000000	      0.00000000
     46.96000000	     -2.13250975	     -2.01439185	      1.54891559	      0.95716322	      0.93732789	      0.40927494	     33.96726653	     -5.70768422	     -3.69476925	     67.80119778	     67.80119778	     -1.81460410	    -18.07345563	      4.30168442	      7.68068584	     -0.21197176	     -7.83678147	     15.74822338	     15.74822338	     12.64770940	    -11.20439243	      0.50660894	     -8.62321011	      5.63922717	      2.46072094	     -6.45758014	    -11.51841801	    -15.63248807	     17.51757794	     47.23862924	      0.00000000	      0.00000000	     22.04728654	    -12.64848679	     -5.59656697	     54.68867499	     46.29880811	      0.00000000	      0.00000000
     46.97200000	     -2.04906667	     -2.06043627	      1.49480872	      0.95658217	      0.93764740	      0.40920909	     34.54145885	     -5.58054459	     -4.02265514	     65.86152275	     65.86152275	     -1.18218942	    -18.17154721	      4.73147663	      6.80562624	     -0.24302820	     -7.96842813	     15.15457694	     15.15457694	     12.87587877	    -10.83723543	      0.50647690	     -8.90514490	      5.72880659	      2.49038574	     -7.94995985	    -11.42712057	    -15.52617797	     17.16646504	     47.24151691	      0.00000000	      0.00000000	     23.09358680	    -12.83305435	     -5.85343375	     56.19075109	     46.35930439	      0.00000000	      0.00000000
     46.98400000	     -2.06447641	     -2.19732822	      1.45051168	      0.95587042	      0.93775658	      0.40920296	     35.04970879	     -5.39222439	     -4.47633710	     63.50482231	     63.50482231	     -0.67120391	    -18.13266316	      5.01109703	      6.11447555	     -0.37613154	     -8.04779389	     14.67370141	     14.67370141	     13.09550452	    -10.51212343	      0.46107378	     -9.10493633	      5.95870148	      2.41302490	     -9.33888555	    -11.36090228	    -15.49960609	     17.00451555	     47.23867611	      0.00000000	      0.00000000	     23.92975114	    -13.05387867	     -6.07954680	     57.66724929	     46.41133177	      0.00000000	      0.00000000
     46.99600000	     -2.21032083	     -2.25814673	      1.41286256	      0.95516711	      0.93746212	      0.40940000	     35.54755608	     -5.22156403	     -4.83347426	     60.81056129	     60.81056129	     -0.14272460	    -17.97602091	      5.14407314	      5.61944517	     -0.43958151	     -8.07284500	     14.30728726	     14.30728726	     13.37068971	    -10.26482598	      0.35416236	     -9.13052144	      6.01952561	      2.25797105	    -10.55733289	    -11.27125113	    -15.51407471	     16.85243935	     47.23660711	      0.00000000	      0.00000000	     24.79942247	    -13.44939461	     -6.30782003	     58.85374753	     46.45681293	      0.00000000	      0.00000000
     47.00800000	     -2.21516591	     -2.30560690	      1.25790750	      0.95461292	      0.93729377	      0.40974672	     35.66207261	     -4.99998727	     -5.14860281	     57.63845558	     57.63845558	      0.05306973	    -17.77991405	      4.30495474	      4.92228067	     -0.54774812	     -8.56385091	     13.89754673	     13.89754673	     13.63851092	     -9.54952222	     -0.09260292	     -9.47226710	      6.07238346	      2.12636523	    -12.28900394	    -11.24737420	    -15.44855175	     18.69594258	     47.14104860	      0.00000000	      0.00000000	     24.44135813	    -13.89694515	     -6.81653482	     63.21393245	     46.58706770	      0.00000000	      0.00000000
     47.02000000	     -2.37638694	     -2.41641843	      1.14489445	      0.95397944	      0.93686355	      0.41020649	     35.75205456	     -4.70762902	     -5.53935759	     54.13431541	     54.13431541	      0.53719384	    -17.31614255	      4.31492406	      4.41663115	     -0.67051381	     -8.64234105	     13.49665443	     13.49665443	     13.88284321	     -9.38256386	     -0.18090479	     -9.48683522	      6.21801928	      2.12772643	    -13.31548126	    -11.22957546	    -15.40795686	     18.51187804	     47.13648942	      0.00000000	      0.00000000	     25.22170430	    -14.12435434	     -7.00899158	     64.17202830	     46.62717863	      0.00000000	      0.00000000
     47.03200000	     -2.41951063	     -2.40444045	      0.92676617	      0.95360452	      0.93643767	      0.41084452	     35.48716746	     -4.48965897	     -5.89088138	     50.26445824	     50.26445824	      0.64236509	    -16.78899705	      3.21658798	      3.68092550	     -0.69653313	     -9.14046233	     12.96980180	     12.96980180	     14.11963958	     -8.77283029	     -0.52725310	     -9.73426098	      6.16786173	      2.43876157	    -14.64742042	    -11.16219506	    -15.32464216	     19.20284573	     47.08595724	      0.00000000	      0.00000000	     25.51468211	    -14.19928706	     -7.31201853	     66.83969847	     46.71241099	      0.00000000	      0.00000000
     47.04400000	     -2.59207105	     -2.52464104	      0.78047602	      0.95322490	      0.93572427	      0.41152788	     35.00915768	     -4.14792500	     -6.39868906	     45.86789673	     45.86789673	      0.06868503	    -16.22183644	      0.28487326	      3.22808216	     -0.87711337	     -9.41527837	     12.69963561	     12.69963561	     14.37412147	     -8.36745735	     -1.07900340	     -9.79108290	      6.32810370	      1.97944925	    -15.79717806	    -11.30805178	    -14.74111468	     20.81640090	     46.95457367	      0.00000000	      0.00000000	     25.20412676	    -14.78298035	     -7.88444029	     69.55630747	     46.86239893	      0.00000000	      0.00000000
